<svg xmlns="http://www.w3.org/2000/svg" width="43" height="33" viewBox="0 0 43 33">
    <defs>
        <style>
            .cls-1{fill:none;stroke:#000;stroke-linecap:round;stroke-linejoin:round;stroke-width:2px}
        </style>
    </defs>
    <g id="Vector_Smart_Object" transform="translate(2 2)">
        <g id="그룹_381">
            <g id="그룹_379">
                <g id="사각형_17" class="cls-1">
                    <rect width="39" height="29" rx="2"/>
                    <rect width="41" height="31" x="-1" y="-1" fill="none" rx="3"/>
                </g>
            </g>
            <g id="그룹_380" transform="translate(15.168 7.555)">
                <path id="패스_153" d="M19.405 20h-.264a3.473 3.473 0 0 1-3.473-3.473 3.473 3.473 0 0 1 3.473-3.472h3.718" class="cls-1" transform="translate(-15.668 -13.055)"/>
                <path id="패스_154" d="M19.405 20h1.127A3.472 3.472 0 0 1 24 23.473a3.472 3.472 0 0 1-3.472 3.472h-3.714" class="cls-1" transform="translate(-15.668 -13.055)"/>
            </g>
            <rect id="사각형_18" width="1" height="20" rx=".5" transform="translate(18 4.5)"/>
            <rect id="사각형_128" width="1" height="20" rx=".5" transform="translate(20 4.5)"/>
        </g>
    </g>
</svg>
