<svg xmlns="http://www.w3.org/2000/svg" width="30.058" height="28.055" viewBox="0 0 30.058 28.055">
    <g fill="#ffe200">
        <path d="M23.172 26.742c-.032 0-.064-.007-.097-.021l-7.37-3.086c-.215-.09-.442-.136-.676-.136-.233 0-.46.046-.676.136l-7.37 3.086c-.032.014-.065.02-.097.02-.068 0-.137-.03-.186-.084-.048-.052-.068-.116-.062-.19l.71-7.784c.043-.48-.116-.962-.436-1.322l-5.224-5.875c-.083-.093-.067-.192-.051-.243.016-.05.062-.14.183-.167l7.775-1.747c.46-.103.865-.393 1.11-.796l4.11-6.742c.064-.104.162-.12.214-.12.053 0 .15.016.214.12l4.11 6.742c.246.403.65.693 1.11.796l7.775 1.747c.122.027.167.116.184.167.016.05.031.15-.052.243l-5.224 5.875c-.32.36-.478.842-.435 1.322l.71 7.785c.006.073-.015.137-.063.189-.048.053-.118.085-.186.085z"/>
        <path fill="#707070" d="M15.03 2.881l-3.684 6.042c-.351.576-.93.99-1.587 1.138l-6.947 1.56 4.66 5.242c.458.514.685 1.202.622 1.888l-.633 6.957 6.603-2.765c.307-.128.632-.194.965-.194.334 0 .658.066.966.194l6.603 2.765-.634-6.957c-.062-.686.164-1.374.622-1.888l4.66-5.241L20.3 10.06c-.657-.148-1.235-.562-1.586-1.138l-3.684-6.042m0-1.96c.33 0 .66.16.854.48l4.11 6.741c.142.232.37.396.635.456l7.775 1.746c.743.167 1.034 1.07.528 1.64l-5.224 5.876c-.184.206-.274.48-.249.755l.71 7.785c.055.611-.436 1.092-.995 1.092-.128 0-.259-.025-.388-.08l-7.37-3.085c-.123-.052-.254-.078-.386-.078-.131 0-.262.026-.386.078l-7.37 3.086c-.128.054-.26.079-.387.079-.56 0-1.05-.48-.995-1.092l.71-7.785c.024-.275-.066-.549-.25-.755l-5.223-5.876c-.507-.57-.216-1.473.528-1.64L9.43 8.598c.265-.06.494-.224.635-.456l4.11-6.742c.195-.32.525-.479.854-.479z"/>
    </g>
</svg>
