<svg xmlns="http://www.w3.org/2000/svg" width="27.431" height="14.512" viewBox="0 0 27.431 14.512">
  <g id="그룹_458" data-name="그룹 458" transform="translate(-354.5 -841.976)">
    <g id="패스_182" data-name="패스 182" transform="translate(354.5 837.828)" fill="#fff">
      <path d="M 14.22342205047607 18.16015434265137 L 14.21314239501953 18.16015434265137 C 11.71845245361328 18.16015434265137 8.819851875305176 17.32616424560547 7.499642372131348 16.83338356018066 C 6.406062126159668 16.42519378662109 4.602682113647461 15.55228424072266 3.03901219367981 14.52231407165527 C 1.167002201080322 13.2892541885376 0.5000022649765015 12.39006423950195 0.5000022649765015 11.95971393585205 C 0.5000022649765015 11.21781444549561 1.186312198638916 9.15864372253418 7.54337215423584 6.068764209747314 C 9.455821990966797 5.139214038848877 11.71468257904053 4.647874355316162 14.07573223114014 4.647874355316162 C 16.51898193359375 4.647874355316162 19.03901290893555 5.178143978118896 20.81681251525879 6.066354274749756 C 22.15073204040527 6.732794284820557 23.70963287353516 7.888453960418701 24.98688316345215 9.157744407653809 C 26.32985305786133 10.49234390258789 26.93098258972168 11.52667427062988 26.93098258972168 11.95971393585205 C 26.93098258972168 12.31496429443359 26.3996524810791 13.15260410308838 24.9022216796875 14.34412384033203 C 23.6777229309082 15.31847381591797 22.12033271789551 16.27661323547363 20.83780288696289 16.84464454650879 C 19.46771240234375 17.45146369934082 16.91333198547363 18.16010475158691 14.22342205047607 18.16015434265137 Z" stroke="none"/>
      <path d="M 14.07573223114014 5.14787483215332 C 11.78995227813721 5.14787483215332 9.606681823730469 5.621814727783203 7.761941909790039 6.518464088439941 C 5.436061859130859 7.648974418640137 3.656642913818359 8.751204490661621 2.473121643066406 9.794553756713867 C 1.539047241210938 10.61799049377441 1.002429962158203 11.40548610687256 1.000011444091797 11.95600605010986 C 1.022375106811523 12.15064525604248 1.493988037109375 12.91920185089111 3.395172119140625 14.15790367126465 C 4.908782958984375 15.14408397674561 6.635082244873047 15.97698402404785 7.674491882324219 16.36495399475098 C 8.963281631469727 16.84601402282715 11.78971195220947 17.66015434265137 14.21282196044922 17.66015434265137 L 14.22343254089355 17.66015434265137 C 16.83515167236328 17.66015434265137 19.30977249145508 16.97457504272461 20.63532257080078 16.38748359680176 C 21.83959197998047 15.85410404205322 23.3176326751709 14.95094394683838 24.49263191223145 14.03045463562012 C 25.99234580993652 12.85558605194092 26.39669799804688 12.14231872558594 26.43037986755371 11.95413303375244 C 26.41048812866211 11.75225830078125 26.04113388061523 10.90075206756592 24.59419250488281 9.472543716430664 C 23.36092185974121 8.255244255065918 21.86527252197266 7.149104118347168 20.59334182739258 6.513644218444824 C 18.88162231445313 5.658443450927734 16.44513320922852 5.14787483215332 14.07573223114014 5.14787483215332 M 14.07573509216309 4.147871017456055 C 16.85846138000488 4.147871017456055 19.39910888671875 4.799125671386719 21.040283203125 5.619073867797852 C 23.98347282409668 7.089524269104004 27.43098258972168 10.5257740020752 27.43098258972168 11.95971393585205 C 27.43098258972168 13.39366436004639 23.64804267883301 16.14683532714844 21.040283203125 17.30181503295898 C 19.81873512268066 17.84284210205078 17.20893478393555 18.66015815734863 14.22343349456787 18.66015815734863 C 14.2197847366333 18.66015815734863 14.21647262573242 18.66015625 14.21282196044922 18.66015434265137 C 14.21138763427734 18.66015434265137 14.20965480804443 18.66015434265137 14.20821952819824 18.66015434265137 C 11.59779357910156 18.66015434265137 8.596254348754883 17.77640342712402 7.324792861938477 17.30181503295898 C 4.92900276184082 16.40755462646484 1.9073486328125e-06 13.67826461791992 1.9073486328125e-06 11.95971393585205 C 1.9073486328125e-06 10.24117374420166 2.389963150024414 8.017674446105957 7.324792861938477 5.619073867797852 C 9.507875442504883 4.557973861694336 11.86807346343994 4.147871017456055 14.07573509216309 4.147871017456055 Z" stroke="none" fill="#444"/>
    </g>
    <g id="사각형_421" data-name="사각형 421" transform="translate(362.252 842.514)" fill="#fff" stroke="#444" stroke-width="1">
      <rect width="11.927" height="11.926" rx="5.963" stroke="none"/>
      <rect x="0.5" y="0.5" width="10.927" height="10.926" rx="5.463" fill="none"/>
    </g>
  </g>
</svg>
