<svg xmlns="http://www.w3.org/2000/svg" width="28" height="23" viewBox="0 0 28 23">
  <g id="그룹_460" data-name="그룹 460" transform="translate(-277 -831.527)">
    <g id="사각형_419" data-name="사각형 419" transform="translate(286 831.527)" fill="#fff" stroke="#444" stroke-width="1">
      <rect width="10" height="10" rx="5" stroke="none"/>
      <rect x="0.5" y="0.5" width="9" height="9" rx="4.5" fill="none"/>
    </g>
    <g id="사각형_420" data-name="사각형 420" transform="translate(277 843.027)" fill="#fff" stroke="#444" stroke-width="1">
      <path d="M10,0h8A10,10,0,0,1,28,10v.5a1,1,0,0,1-1,1H1a1,1,0,0,1-1-1V10A10,10,0,0,1,10,0Z" stroke="none"/>
      <path d="M10,.5h8A9.5,9.5,0,0,1,27.5,10v.5a.5.5,0,0,1-.5.5H1a.5.5,0,0,1-.5-.5V10A9.5,9.5,0,0,1,10,.5Z" fill="none"/>
    </g>
  </g>
</svg>
